<svg xmlns="http://www.w3.org/2000/svg" width="400" height="184" viewBox="0 0 400 184">
  <g id="Group_2" data-name="Group 2" transform="translate(-369 -527)">
    <g id="right_chain" data-name="right chain" transform="translate(549 167)">
      <g id="Rectangle_17" data-name="Rectangle 17" transform="translate(220 360) rotate(90)" fill="none" stroke="#2c3f34" stroke-width="2">
        <rect width="24" height="10" rx="5" stroke="none"/>
        <rect x="1" y="1" width="22" height="8" rx="4" fill="none"/>
      </g>
      <g id="Rectangle_17-2" data-name="Rectangle 17" transform="translate(220 400) rotate(90)" fill="none" stroke="#2c3f34" stroke-width="2">
        <rect width="24" height="10" rx="5" stroke="none"/>
        <rect x="1" y="1" width="22" height="8" rx="4" fill="none"/>
      </g>
      <g id="Rectangle_17-3" data-name="Rectangle 17" transform="translate(220 440) rotate(90)" fill="none" stroke="#2c3f34" stroke-width="2">
        <rect width="24" height="10" rx="5" stroke="none"/>
        <rect x="1" y="1" width="22" height="8" rx="4" fill="none"/>
      </g>
      <g id="Rectangle_17-4" data-name="Rectangle 17" transform="translate(220 480) rotate(90)" fill="none" stroke="#2c3f34" stroke-width="2">
        <rect width="24" height="10" rx="5" stroke="none"/>
        <rect x="1" y="1" width="22" height="8" rx="4" fill="none"/>
      </g>
      <g id="Rectangle_17-5" data-name="Rectangle 17" transform="translate(220 520) rotate(90)" fill="none" stroke="#2c3f34" stroke-width="2">
        <rect width="24" height="10" rx="5" stroke="none"/>
        <rect x="1" y="1" width="22" height="8" rx="4" fill="none"/>
      </g>
      <line id="Line_21" data-name="Line 21" y2="23" transform="translate(215 380.5)" fill="none" stroke="#2c3f34" stroke-linecap="round" stroke-width="2"/>
      <line id="Line_21-2" data-name="Line 21" y2="23" transform="translate(215 420.5)" fill="none" stroke="#2c3f34" stroke-linecap="round" stroke-width="2"/>
      <line id="Line_21-3" data-name="Line 21" y2="23" transform="translate(215 460.5)" fill="none" stroke="#2c3f34" stroke-linecap="round" stroke-width="2"/>
      <line id="Line_21-4" data-name="Line 21" y2="23" transform="translate(215 500.5)" fill="none" stroke="#2c3f34" stroke-linecap="round" stroke-width="2"/>
    </g>
    <g id="right_chain-2" data-name="right chain" transform="translate(159 167)">
      <g id="Rectangle_17-6" data-name="Rectangle 17" transform="translate(220 360) rotate(90)" fill="none" stroke="#2c3f34" stroke-width="2">
        <rect width="24" height="10" rx="5" stroke="none"/>
        <rect x="1" y="1" width="22" height="8" rx="4" fill="none"/>
      </g>
      <g id="Rectangle_17-7" data-name="Rectangle 17" transform="translate(220 400) rotate(90)" fill="none" stroke="#2c3f34" stroke-width="2">
        <rect width="24" height="10" rx="5" stroke="none"/>
        <rect x="1" y="1" width="22" height="8" rx="4" fill="none"/>
      </g>
      <g id="Rectangle_17-8" data-name="Rectangle 17" transform="translate(220 440) rotate(90)" fill="none" stroke="#2c3f34" stroke-width="2">
        <rect width="24" height="10" rx="5" stroke="none"/>
        <rect x="1" y="1" width="22" height="8" rx="4" fill="none"/>
      </g>
      <g id="Rectangle_17-9" data-name="Rectangle 17" transform="translate(220 480) rotate(90)" fill="none" stroke="#2c3f34" stroke-width="2">
        <rect width="24" height="10" rx="5" stroke="none"/>
        <rect x="1" y="1" width="22" height="8" rx="4" fill="none"/>
      </g>
      <g id="Rectangle_17-10" data-name="Rectangle 17" transform="translate(220 520) rotate(90)" fill="none" stroke="#2c3f34" stroke-width="2">
        <rect width="24" height="10" rx="5" stroke="none"/>
        <rect x="1" y="1" width="22" height="8" rx="4" fill="none"/>
      </g>
      <line id="Line_21-5" data-name="Line 21" y2="23" transform="translate(215 380.5)" fill="none" stroke="#2c3f34" stroke-linecap="round" stroke-width="2"/>
      <line id="Line_21-6" data-name="Line 21" y2="23" transform="translate(215 420.5)" fill="none" stroke="#2c3f34" stroke-linecap="round" stroke-width="2"/>
      <line id="Line_21-7" data-name="Line 21" y2="23" transform="translate(215 460.5)" fill="none" stroke="#2c3f34" stroke-linecap="round" stroke-width="2"/>
      <line id="Line_21-8" data-name="Line 21" y2="23" transform="translate(215 500.5)" fill="none" stroke="#2c3f34" stroke-linecap="round" stroke-width="2"/>
    </g>
  </g>
</svg>
